<svg width="24" height="24" viewBox="0 0 24 24" fill="none" xmlns="http://www.w3.org/2000/svg">
  <rect width="24" height="24" rx="12" fill="#0070F3"/>
  <path d="M19 12.5C19 14.985 16.985 17 14.5 17H13.5C13.224 17 13 16.776 13 16.5V13.5C13 13.224 13.224 13 13.5 13H16.5C16.776 13 17 12.776 17 12.5V9.5C17 9.224 16.776 9 16.5 9H13.5C13.224 9 13 8.776 13 8.5V7.5C13 5.015 15.015 3 17.5 3M5 12.5C5 14.985 7.015 17 9.5 17H10.5C10.776 17 11 16.776 11 16.5V13.5C11 13.224 10.776 13 10.5 13H7.5C7.224 13 7 12.776 7 12.5V9.5C7 9.224 7.224 9 7.5 9H10.5C10.776 9 11 8.776 11 8.5V7.5C11 5.015 8.985 3 6.5 3" stroke="white" stroke-width="2" stroke-linecap="round" stroke-linejoin="round"/>
</svg>